<svg width="60" height="57" viewBox="0 0 60 57" fill="none" xmlns="http://www.w3.org/2000/svg">
<path opacity="0.6" d="M58.1999 11.5001C54.7999 7.90007 48.5999 9.70007 44.2999 15.5001C39.9999 21.3001 36.7999 35.5001 36.7999 35.5001C36.7999 35.5001 51.3999 33.5001 55.6999 27.7001C59.9999 21.9001 61.4999 15.1001 58.1999 11.5001ZM1.79987 11.5001C5.19987 7.90007 11.3999 9.70007 15.6999 15.5001C19.9999 21.3001 23.1999 35.5001 23.1999 35.5001C23.1999 35.5001 8.59987 33.5001 4.29987 27.7001C-0.000130177 21.9001 -1.50013 15.1001 1.79987 11.5001Z" fill="#8FBEDB"/>
<path opacity="0.6" d="M2.10026 39.3003C0.90026 29.4003 28.7003 36.7003 28.7003 36.7003C28.7003 36.7003 4.90026 61.9003 2.10026 39.3003ZM57.3003 39.3003C58.5003 29.4003 30.7003 36.7003 30.7003 36.7003C30.7003 36.7003 54.5003 61.9003 57.3003 39.3003Z" fill="#8FBEDB"/>
<path d="M42 36.5002C42 62.8002 18 62.8002 18 36.5002C18 28.1002 42 28.1002 42 36.5002Z" fill="#3E4347"/>
<path d="M20.7 35.6001C20.3 36.2001 20 36.9001 20 37.6001C20 38.8001 20.1 39.8001 20.2 40.9001C26.5 41.4001 33.6 41.4001 39.9 40.9001C40 39.9001 40.1 38.8001 40.1 37.6001C40.1 36.8001 39.9 36.2001 39.4 35.6001C33.3 37.0001 26.7 37.0001 20.7 35.6001ZM21.3 46.3001C22 48.3001 22.9 49.9001 24 51.1001C27.9 50.5001 32 50.5001 36 51.1001C37.1 49.9001 38 48.3001 38.7 46.3001C33.1 45.9001 26.9 45.9001 21.3 46.3001Z" fill="#FFCE31"/>
<path d="M30.0002 34.8002C37.6217 34.8002 43.8002 28.6217 43.8002 21.0002C43.8002 13.3787 37.6217 7.2002 30.0002 7.2002C22.3787 7.2002 16.2002 13.3787 16.2002 21.0002C16.2002 28.6217 22.3787 34.8002 30.0002 34.8002Z" fill="#FFCE31"/>
<path d="M26.3992 8.69971L25.4992 8.59971C25.5992 6.69971 24.1992 4.29971 21.6992 3.59971L21.8992 2.69971C24.5992 3.49971 26.4992 6.09971 26.3992 8.69971Z" fill="#3E4347"/>
<path d="M23.4997 1.79984C24.2997 2.69984 24.1997 4.09984 23.2997 4.89984C22.3997 5.69984 20.9997 5.59984 20.1997 4.69984C19.3997 3.79984 19.4997 2.39984 20.3997 1.59984C21.2997 0.699845 22.6997 0.799845 23.4997 1.79984ZM33.5997 8.69984L34.4997 8.59985C34.3997 6.69985 35.7997 4.29984 38.2997 3.59984L38.0997 2.69984C35.3997 3.49985 33.4997 6.09984 33.5997 8.69984Z" fill="#3E4347"/>
<path d="M36.4995 1.79984C35.6995 2.69984 35.7995 4.09984 36.6995 4.89984C37.5995 5.69984 38.9995 5.59984 39.7995 4.69984C40.5995 3.79984 40.4995 2.39984 39.5995 1.59984C38.6995 0.699845 37.2995 0.799845 36.4995 1.79984Z" fill="#3E4347"/>
<path d="M42.2998 21.6001C42.2998 24.9001 40.0998 27.6001 37.2998 27.6001C34.4998 27.6001 32.2998 24.9001 32.2998 21.6001C32.2998 18.3001 34.4998 15.6001 37.2998 15.6001C39.9998 15.6001 42.2998 18.3001 42.2998 21.6001Z" fill="#FCFCFA"/>
<path d="M39.7998 21.6001C39.7998 23.3001 38.6998 24.6001 37.2998 24.6001C35.8998 24.6001 34.7998 23.3001 34.7998 21.6001C34.7998 19.9001 35.8998 18.6001 37.2998 18.6001C38.5998 18.6001 39.7998 19.9001 39.7998 21.6001Z" fill="#3F3438"/>
<path d="M27.7002 21.6001C27.7002 24.9001 25.5002 27.6001 22.7002 27.6001C19.9002 27.6001 17.7002 24.9001 17.7002 21.6001C17.7002 18.3001 19.9002 15.6001 22.7002 15.6001C25.5002 15.6001 27.7002 18.3001 27.7002 21.6001Z" fill="#FCFCFA"/>
<path d="M25.2002 21.6001C25.2002 23.3001 24.1002 24.6001 22.7002 24.6001C21.3002 24.6001 20.2002 23.3001 20.2002 21.6001C20.2002 19.9001 21.3002 18.6001 22.7002 18.6001C24.1002 18.6001 25.2002 19.9001 25.2002 21.6001Z" fill="#3F3438"/>
</svg>
